0
SECTION
2
HEADER
9
$INSUNITS
70
4
9
$ACADVER
1
AC1014
9
$HANDSEED
5
FFFF
0
ENDSEC
0
SECTION
2
TABLES
0
TABLE
2
VPORT
5
8
100
AcDbSymbolTable
0
ENDTAB
0
TABLE
2
LTYPE
5
5
100
AcDbSymbolTable
0
LTYPE
5
14
100
AcDbSymbolTableRecord
100
AcDbLinetypeTableRecord
2
BYBLOCK
70
0
0
LTYPE
5
15
100
AcDbSymbolTableRecord
100
AcDbLinetypeTableRecord
2
BYLAYER
70
0
0
ENDTAB
0
TABLE
2
LAYER
5
2
100
AcDbSymbolTable
70
2
0
LAYER
5
50
100
AcDbSymbolTableRecord
100
AcDbLayerTableRecord
2
0
70
0
6
CONTINUOUS
0
ENDTAB
0
TABLE
2
STYLE
5
3
100
AcDbSymbolTable
70
1
0
STYLE
5
11
100
AcDbSymbolTableRecord
100
AcDbTextStyleTableRecord
2
STANDARD
70
0
0
ENDTAB
0
TABLE
2
VIEW
5
6
100
AcDbSymbolTable
70
0
0
ENDTAB
0
TABLE
2
UCS
5
7
100
AcDbSymbolTable
70
0
0
ENDTAB
0
TABLE
2
APPID
5
9
100
AcDbSymbolTable
70
2
0
APPID
5
12
100
AcDbSymbolTableRecord
100
AcDbRegAppTableRecord
2
ACAD
70
0
0
ENDTAB
0
TABLE
2
DIMSTYLE
5
A
100
AcDbSymbolTable
70
1
0
ENDTAB
0
TABLE
2
BLOCK_RECORD
5
1
100
AcDbSymbolTable
70
1
0
BLOCK_RECORD
5
1F
100
AcDbSymbolTableRecord
100
AcDbBlockTableRecord
2
*MODEL_SPACE
0
BLOCK_RECORD
5
1B
100
AcDbSymbolTableRecord
100
AcDbBlockTableRecord
2
*PAPER_SPACE
0
ENDTAB
0
ENDSEC
0
SECTION
2
BLOCKS
0
BLOCK
5
20
100
AcDbEntity
100
AcDbBlockBegin
2
*MODEL_SPACE
0
ENDBLK
5
21
100
AcDbEntity
100
AcDbBlockEnd
0
BLOCK
5
1C
100
AcDbEntity
100
AcDbBlockBegin
2
*PAPER_SPACE
0
ENDBLK
5
1D
100
AcDbEntity
100
AcDbBlockEnd
0
ENDSEC
0
SECTION
2
ENTITIES
0
LINE
5
100
100
AcDbEntity
8
0
100
AcDbLine
10
-4.592425496802571e-16
20
-7.4999999999999911
30
0
11
5.6639914460565101e-15
21
92.5
31
0
0
LINE
5
101
100
AcDbEntity
8
0
100
AcDbLine
10
6.3453126317639175e-15
20
83.000000000000043
30
0
11
5.7271428668216302e-15
21
92.5
31
0
0
SPLINE
5
102
100
AcDbEntity
8
0
100
AcDbSpline
70
1064
71
3
72
32
73
28
74
0
42
0.000000001
43
0.0000000001
44
0.0000000001
40
0.050844060727455079
40
0.050844060727455079
40
0.050844060727455079
40
0.050844060727455079
40
0.066523445520930674
40
0.066523445520930674
40
0.066523445520930674
40
0.078975852299715127
40
0.078975852299715127
40
0.078975852299715127
40
0.15795227249592964
40
0.15795227249592964
40
0.15795227249592964
40
0.22583402189414067
40
0.22583402189414067
40
0.22583402189414067
40
0.29068694067171469
40
0.29068694067171469
40
0.29068694067171469
40
0.37935107308775035
40
0.37935107308775035
40
0.37935107308775035
40
0.47161099575672577
40
0.47161099575672577
40
0.47161099575672577
40
0.55346502548566845
40
0.55346502548566845
40
0.55346502548566845
40
0.58947975584097745
40
0.58947975584097745
40
0.58947975584097745
40
0.58947975584097745
10
15.219563038588879
20
-8.0283002468206632e-14
30
0
10
15.308978580207192
20
0.73233647348947495
30
0
10
15.398394121825508
20
1.4646729469790323
30
0
10
15.487809663443819
20
2.1970094204685902
30
0
10
15.555433951398589
20
2.7508698754490051
30
0
10
15.631933531180769
20
3.300161300893814
30
0
10
15.718191004123449
20
3.8442924050336753
30
0
10
16.262529581922372
20
7.2780998336430125
30
0
10
17.243285170169198
20
10.580345236867164
30
0
10
18.71425506876799
20
13.801132374091438
30
0
10
19.984064975503667
20
16.581466232880828
30
0
10
21.628703888865385
20
19.37875701658858
30
0
10
23.663711926671262
20
22.132730312781504
30
0
10
25.5966150318202
20
24.748525158215084
30
0
10
27.915360592361619
20
27.299140442783401
30
0
10
30.252442357302147
20
29.572794496523773
30
0
10
33.46854703203951
20
32.70161503702208
30
0
10
36.738450056632431
20
35.431861478576309
30
0
10
39.500534533631523
20
38.11700860118065
30
0
10
42.373933690140248
20
40.910369753398477
30
0
10
44.617632783415637
20
43.593039660419564
30
0
10
46.214996244346132
20
46.579828378742448
30
0
10
47.628122444608572
20
49.222125824341759
30
0
10
48.54572216256544
20
52.110562384856564
30
0
10
48.907000214299686
20
55.175482444796316
30
0
10
49.067102099621607
20
56.533714636322578
30
0
10
49.114961710846281
20
57.912453758632694
30
0
10
49.05262007599552
20
59.285999901220478
30
0
0
LINE
5
103
100
AcDbEntity
8
0
100
AcDbLine
10
-49.052620075995428
20
59.285999901220734
30
0
11
49.05262007599552
21
59.285999901220478
31
0
0
SPLINE
5
104
100
AcDbEntity
8
0
100
AcDbSpline
70
1064
71
3
72
32
73
28
74
0
42
0.000000001
43
0.0000000001
44
0.0000000001
40
0.050844060727454454
40
0.050844060727454454
40
0.050844060727454454
40
0.050844060727454454
40
0.066523445520930202
40
0.066523445520930202
40
0.066523445520930202
40
0.078975852299680446
40
0.078975852299680446
40
0.078975852299680446
40
0.15795227249583027
40
0.15795227249583027
40
0.15795227249583027
40
0.22583402189407137
40
0.22583402189407137
40
0.22583402189407137
40
0.29068694067153733
40
0.29068694067153733
40
0.29068694067153733
40
0.37935107308759519
40
0.37935107308759519
40
0.37935107308759519
40
0.47161099575628285
40
0.47161099575628285
40
0.47161099575628285
40
0.55346502548558907
40
0.55346502548558907
40
0.55346502548558907
40
0.58947975584098311
40
0.58947975584098311
40
0.58947975584098311
40
0.58947975584098311
10
-15.219563038588902
20
2.9143354396410359e-15
30
0
10
-15.308978580207217
20
0.73233647348954301
30
0
10
-15.398394121825532
20
1.4646729469790825
30
0
10
-15.48780966344385
20
2.197009420468623
30
0
10
-15.555433951398436
20
2.7508698754475032
30
0
10
-15.63193353118038
20
3.30016130089076
30
0
10
-15.718191004122763
20
3.8442924050291265
30
0
10
-16.262529581920841
20
7.2780998336355314
30
0
10
-17.243285170166082
20
10.580345236857539
30
0
10
-18.714255068762423
20
13.801132374079232
30
0
10
-19.984064975497596
20
16.581466232869928
30
0
10
-21.628703888859153
20
19.37875701657892
30
0
10
-23.663711926665002
20
22.132730312773035
30
0
10
-25.59661503180979
20
24.748525158202185
30
0
10
-27.915360592346516
20
27.299140442767332
30
0
10
-30.252442357282938
20
29.572794496505068
30
0
10
-33.468547032020759
20
32.701615037005695
30
0
10
-36.738450056615847
20
35.431861478561622
30
0
10
-39.500534533617113
20
38.117008601166653
30
0
10
-42.373933690118491
20
40.910369753375868
30
0
10
-44.61763278339162
20
43.593039660388811
30
0
10
-46.214996244323167
20
46.57982837869956
30
0
10
-47.628122444597224
20
49.222125824308108
30
0
10
-48.545722162561603
20
52.110562384834864
30
0
10
-48.90700021429852
20
55.175482444787384
30
0
10
-49.067102099621295
20
56.533714636316517
30
0
10
-49.11496171084633
20
57.912453758629773
30
0
10
-49.052620075995428
20
59.285999901220734
30
0
0
LINE
5
105
100
AcDbEntity
8
0
100
AcDbLine
10
-15.219563038588902
20
2.9143354396410359e-15
30
0
11
15.219563038588879
21
-8.0283002468206632e-14
31
0
0
ENDSEC
0
SECTION
2
OBJECTS
0
DICTIONARY
5
C
100
AcDbDictionary
3
ACAD_GROUP
350
D
3
ACAD_MLINESTYLE
350
17
0
DICTIONARY
5
D
100
AcDbDictionary
0
DICTIONARY
5
1A
330
C
100
AcDbDictionary
0
DICTIONARY
5
17
100
AcDbDictionary
0
ENDSEC
0
EOF
